# xmcd CD database file
#
# Track frame offsets:
#	150
#	21903
#	45893
#	63419
#	80025
#	101077
#	125529
#	147381
#	166582
#	185203
#	205834
#	226356
#	247652
#	265903
#	282912
#	304560
#	321881
#
# Disc length: 4506 seconds
#
# Revision: 1
# Processed by: cddbd v1.5.1PL2 Copyright (c) Steve Scherf et al.
# Submitted via: CDex 1.51
#
DISCID=ea119811
DTITLE=Various Artist - #1 Spot
DYEAR=1900
DGENRE=Jazz
TTITLE0=The Rain - Oran 'Juice' Jones
TTITLE1=I Need Love - LL Cool J
TTITLE2=This Is How We Do It - Montell Jordan
TTITLE3=I'll Be There For You - Method Man Feat , Mary J Blige
TTITLE4=In My Bed - Dru Hill
TTITLE5=Never Make A Promise - Dru Hill
TTITLE6=Let's Ride - Montel Jordan feat , Master P and Silkk the Shocker
TTITLE7=Friend Of Mine - Kelly Price
TTITLE8=How Deep Is Your Love - Dru Hill feat , Redman
TTITLE9=Get It On Tonight - Montel Jordan
TTITLE10=Incomplete - Sisqo
TTITLE11=Missing You - Case
TTITLE12=Always On Time - Ja Rule feat , Ashanti
TTITLE13=Foolish - Ashanti
TTITLE14=Luv U Better - LL Cool J
TTITLE15=Excuse Me Miss - Jay Z feat , Pharrell
TTITLE16=Stand Up - Ludacris feat , Shawnna
EXTD=
EXTT0=
EXTT1=
EXTT2=
EXTT3=
EXTT4=
EXTT5=
EXTT6=
EXTT7=
EXTT8=
EXTT9=
EXTT10=
EXTT11=
EXTT12=
EXTT13=
EXTT14=
EXTT15=
EXTT16=
PLAYORDER=
